# xmcd CD database file
#
# Track frame offsets:
#	150
#	14714
#	33885
#	42911
#	54537
#	67129
#	80096
#	92930
#	104654
#	126696
#	138633
#	152269
#	169589
#	192474
#	222886
#	255679
#	270192
#	292894
#	310281
#	336664
#	353754
#
# Disc length: 4852 seconds
#
# Revision: 0
# Processed by: cddbd v1.5.2PL0 Copyright (c) Steve Scherf et al.
# Submitted via: CDex 1.51
#
DISCID=4812f215
DTITLE=Various Artist - Female
DYEAR=1900
DGENRE=Jazz
TTITLE0=As the times go by - Billie Holiday
TTITLE1=Sweet Georgia brown - Anita O'Day
TTITLE2=Yarbird Suite - Carme McRae
TTITLE3=No moon at all - Jeri Southern
TTITLE4=Social Call - Enrestine Anderson
TTITLE5=Babe's blues - Betty Carter
TTITLE6=Tomorrow is my turn - Nina Simone
TTITLE7=Nelly Blu - Christine Jones
TTITLE8=Baltimore oriole - Helen Merril
TTITLE9=Wives and lovers - Rite Reys
TTITLE10=Mercy, mercy, mercy - Marlena Shaw
TTITLE11=What game shall we play today - Flora Purim
TTITLE12=Five and nine - Rimona Frances
TTITLE13=My favorite things - Sheila Jordan
TTITLE14=Summertime - Chaka Khan
TTITLE15=Hit the road Jack - Shirley Horn
TTITLE16=Frim Fram Sauce - Diana Krall
TTITLE17=Meant to be! - Fleurine
TTITLE18=Afro blue - Lizz Wright
TTITLE19=The art how to fall - Rebekka Bakken
TTITLE20=Gatekeeper - Feist
EXTD=
EXTT0=
EXTT1=
EXTT2=
EXTT3=
EXTT4=
EXTT5=
EXTT6=
EXTT7=
EXTT8=
EXTT9=
EXTT10=
EXTT11=
EXTT12=
EXTT13=
EXTT14=
EXTT15=
EXTT16=
EXTT17=
EXTT18=
EXTT19=
EXTT20=
PLAYORDER=
